<svg xmlns="http://www.w3.org/2000/svg" width="40" height="40" fill="none">
	<path d="M20 40c11.046 0 20-8.954 20-20S31.046 0 20 0 0 8.954 0 20s8.954 20 20 20z" fill="#3C9ACF"/>
	<path d="M39 24.5l-8.5-9.752C30 16 19.169 32.64 24 20c-4.04.674-1.594 2.422-5.5 3.5-1.886.538-2.54-10.234-3.214-8.752 1.003 3.252 0 6.252-2.02 8.215-.808 1.75-1.593-.483-2.266 1.537-.225.843.465 2.465 0 2l7.885 13.469c.37.02.74.031 1.115.031 11.045 0 17.5-8 19.5-15l-.5-.5z" fill="#2C7EAB"/>
	<path d="M21.363 23.333l.378-.933h-.926v.933h.548z" fill="#fff"/>
	<path d="M30.867 26.643a1.69 1.69 0 0 0-.084-.16c-.434-.766-1.263-1.707-2.486-2.823l-.026-.025-.013-.013-.013-.013h-.013c-.556-.52-.907-.869-1.055-1.048-.27-.34-.33-.685-.182-1.035.104-.264.495-.821 1.171-1.673.356-.452.638-.813.846-1.086 1.502-1.959 2.152-3.21 1.953-3.756l-.078-.127c-.052-.077-.186-.147-.403-.211-.217-.064-.495-.075-.833-.032l-3.749.025a.496.496 0 0 0-.26.007l-.17.038-.065.032-.052.039a.574.574 0 0 0-.143.134.872.872 0 0 0-.13.223 20.685 20.685 0 0 1-1.393 2.875c-.32.528-.616.986-.885 1.373-.269.388-.494.673-.677.856-.182.183-.347.33-.494.44-.148.112-.26.159-.339.141a9.492 9.492 0 0 1-.221-.05.856.856 0 0 1-.293-.314 1.383 1.383 0 0 1-.15-.498 5.4 5.4 0 0 1-.045-.518 10.66 10.66 0 0 1 .006-.613c.01-.264.014-.443.014-.537 0-.323.006-.675.019-1.053l.033-.901c.008-.221.012-.456.012-.703 0-.247-.015-.44-.045-.581a1.966 1.966 0 0 0-.136-.409.692.692 0 0 0-.267-.307 1.52 1.52 0 0 0-.436-.172c-.46-.102-1.046-.158-1.758-.166-1.614-.017-2.65.085-3.11.307a1.746 1.746 0 0 0-.495.383c-.156.187-.178.29-.065.306.52.077.889.26 1.106.55l.078.153c.06.11.122.307.182.588.061.28.1.592.117.932a9.764 9.764 0 0 1 0 1.597 18.81 18.81 0 0 1-.123 1.035c-.04.247-.098.447-.176.6-.078.154-.13.248-.156.282a.22.22 0 0 1-.065.063.991.991 0 0 1-.352.064c-.121 0-.269-.06-.442-.179a3.1 3.1 0 0 1-.54-.491 6.576 6.576 0 0 1-.632-.876 15.192 15.192 0 0 1-.729-1.328l-.208-.37c-.13-.24-.308-.586-.533-1.042a19.888 19.888 0 0 1-.6-1.322.844.844 0 0 0-.312-.41l-.065-.038a.896.896 0 0 0-.208-.108 1.406 1.406 0 0 0-.3-.083l-3.566.025c-.364 0-.612.081-.742.243l-.052.077a.407.407 0 0 0-.039.204c0 .094.026.209.078.345a41.844 41.844 0 0 0 1.699 3.475C8.388 20.1 8.92 21 9.37 21.68c.451.682.911 1.325 1.38 1.93.469.604.779.992.93 1.162.152.17.272.298.359.384l.325.306c.208.205.514.45.918.735.403.285.85.566 1.34.843.49.277 1.061.502 1.712.677.65.175 1.284.245 1.9.211h1.497c.304-.026.534-.12.69-.281l.052-.064a.836.836 0 0 0 .098-.236 1.3 1.3 0 0 0 .045-.352 4.14 4.14 0 0 1 .085-.99c.065-.293.138-.515.221-.664a1.638 1.638 0 0 1 .502-.562.837.837 0 0 1 .103-.044c.209-.069.454-.003.736.198.282.2.547.447.794.74.247.295.545.625.892.99.347.367.65.64.91.818l.261.154c.174.102.4.196.677.28.277.086.52.107.729.065l3.332-.051c.33 0 .586-.054.768-.16.182-.107.29-.224.325-.351a.972.972 0 0 0 .007-.435 1.581 1.581 0 0 0-.092-.338z" fill="#fff"/>
</svg>